<mxfile host="app.diagrams.net" modified="2022-08-13T14:30:41.069Z" agent="5.0 (X11)" etag="_vkcTWHircmNjvRG3PHk" version="20.2.3" type="github">
  <diagram id="C5RBs43oDa-KdzZeNtuy" name="Page-1">
    <mxGraphModel dx="1961" dy="687" grid="1" gridSize="10" guides="1" tooltips="1" connect="1" arrows="1" fold="1" page="1" pageScale="1" pageWidth="827" pageHeight="1169" math="0" shadow="0">
      <root>
        <mxCell id="WIyWlLk6GJQsqaUBKTNV-0" />
        <mxCell id="WIyWlLk6GJQsqaUBKTNV-1" parent="WIyWlLk6GJQsqaUBKTNV-0" />
        <mxCell id="WIyWlLk6GJQsqaUBKTNV-2" value="" style="rounded=0;html=1;jettySize=auto;orthogonalLoop=1;fontSize=11;endArrow=block;endFill=0;endSize=8;strokeWidth=1;shadow=0;labelBackgroundColor=none;edgeStyle=orthogonalEdgeStyle;" parent="WIyWlLk6GJQsqaUBKTNV-1" source="WIyWlLk6GJQsqaUBKTNV-3" target="WIyWlLk6GJQsqaUBKTNV-6" edge="1">
          <mxGeometry relative="1" as="geometry" />
        </mxCell>
        <mxCell id="WIyWlLk6GJQsqaUBKTNV-3" value="Необходимость поверки" style="rounded=1;whiteSpace=wrap;html=1;fontSize=12;glass=0;strokeWidth=1;shadow=0;" parent="WIyWlLk6GJQsqaUBKTNV-1" vertex="1">
          <mxGeometry x="115" y="10" width="120" height="40" as="geometry" />
        </mxCell>
        <mxCell id="WIyWlLk6GJQsqaUBKTNV-4" value="Yes" style="rounded=0;html=1;jettySize=auto;orthogonalLoop=1;fontSize=11;endArrow=block;endFill=0;endSize=8;strokeWidth=1;shadow=0;labelBackgroundColor=none;edgeStyle=orthogonalEdgeStyle;entryX=0.25;entryY=0;entryDx=0;entryDy=0;" parent="WIyWlLk6GJQsqaUBKTNV-1" source="WIyWlLk6GJQsqaUBKTNV-6" target="WIyWlLk6GJQsqaUBKTNV-11" edge="1">
          <mxGeometry y="20" relative="1" as="geometry">
            <mxPoint as="offset" />
            <mxPoint x="220" y="290" as="targetPoint" />
          </mxGeometry>
        </mxCell>
        <mxCell id="WIyWlLk6GJQsqaUBKTNV-5" value="No" style="edgeStyle=orthogonalEdgeStyle;rounded=0;html=1;jettySize=auto;orthogonalLoop=1;fontSize=11;endArrow=block;endFill=0;endSize=8;strokeWidth=1;shadow=0;labelBackgroundColor=none;" parent="WIyWlLk6GJQsqaUBKTNV-1" source="WIyWlLk6GJQsqaUBKTNV-6" target="WIyWlLk6GJQsqaUBKTNV-7" edge="1">
          <mxGeometry y="10" relative="1" as="geometry">
            <mxPoint as="offset" />
          </mxGeometry>
        </mxCell>
        <mxCell id="WIyWlLk6GJQsqaUBKTNV-6" value="Поверка своими силами" style="rhombus;whiteSpace=wrap;html=1;shadow=0;fontFamily=Helvetica;fontSize=12;align=center;strokeWidth=1;spacing=6;spacingTop=-4;" parent="WIyWlLk6GJQsqaUBKTNV-1" vertex="1">
          <mxGeometry x="100" y="100" width="150" height="120" as="geometry" />
        </mxCell>
        <mxCell id="WIyWlLk6GJQsqaUBKTNV-7" value="Создать VerificationOrder" style="rounded=1;whiteSpace=wrap;html=1;fontSize=12;glass=0;strokeWidth=1;shadow=0;" parent="WIyWlLk6GJQsqaUBKTNV-1" vertex="1">
          <mxGeometry x="380" y="140" width="120" height="40" as="geometry" />
        </mxCell>
        <mxCell id="WIyWlLk6GJQsqaUBKTNV-11" value="Создать Verification (статус &quot;Draft&quot; или &quot;На поверке&quot;)" style="rounded=1;whiteSpace=wrap;html=1;fontSize=12;glass=0;strokeWidth=1;shadow=0;" parent="WIyWlLk6GJQsqaUBKTNV-1" vertex="1">
          <mxGeometry x="135" y="480" width="160" height="70" as="geometry" />
        </mxCell>
        <mxCell id="WIyWlLk6GJQsqaUBKTNV-12" value="Заполнить Verification и сменить статус на закрыт" style="rounded=1;whiteSpace=wrap;html=1;fontSize=12;glass=0;strokeWidth=1;shadow=0;" parent="WIyWlLk6GJQsqaUBKTNV-1" vertex="1">
          <mxGeometry x="-79.97" y="1460" width="150" height="60" as="geometry" />
        </mxCell>
        <mxCell id="IrsNi3u9plFmU_Mw5-sa-1" value="Результат" style="rhombus;whiteSpace=wrap;html=1;shadow=0;fontFamily=Helvetica;fontSize=12;align=center;strokeWidth=1;spacing=6;spacingTop=-4;" parent="WIyWlLk6GJQsqaUBKTNV-1" vertex="1">
          <mxGeometry x="140.03" y="1270" width="150" height="120" as="geometry" />
        </mxCell>
        <mxCell id="IrsNi3u9plFmU_Mw5-sa-7" value="" style="rounded=0;html=1;jettySize=auto;orthogonalLoop=1;fontSize=11;endArrow=block;endFill=0;endSize=8;strokeWidth=1;shadow=0;labelBackgroundColor=none;edgeStyle=orthogonalEdgeStyle;exitX=0.5;exitY=1;exitDx=0;exitDy=0;entryX=0.5;entryY=0;entryDx=0;entryDy=0;" parent="WIyWlLk6GJQsqaUBKTNV-1" source="WIyWlLk6GJQsqaUBKTNV-11" target="IrsNi3u9plFmU_Mw5-sa-1" edge="1">
          <mxGeometry relative="1" as="geometry">
            <mxPoint x="290" y="420" as="sourcePoint" />
            <mxPoint x="290" y="470" as="targetPoint" />
          </mxGeometry>
        </mxCell>
        <mxCell id="IrsNi3u9plFmU_Mw5-sa-9" value="OK" style="rounded=0;html=1;jettySize=auto;orthogonalLoop=1;fontSize=11;endArrow=block;endFill=0;endSize=8;strokeWidth=1;shadow=0;labelBackgroundColor=none;edgeStyle=orthogonalEdgeStyle;exitX=0;exitY=0.5;exitDx=0;exitDy=0;entryX=0.5;entryY=0;entryDx=0;entryDy=0;" parent="WIyWlLk6GJQsqaUBKTNV-1" source="IrsNi3u9plFmU_Mw5-sa-1" target="WIyWlLk6GJQsqaUBKTNV-12" edge="1">
          <mxGeometry x="0.2728" y="15" relative="1" as="geometry">
            <mxPoint as="offset" />
            <mxPoint x="225" y="1300" as="sourcePoint" />
            <mxPoint x="215" y="1650" as="targetPoint" />
          </mxGeometry>
        </mxCell>
        <mxCell id="IrsNi3u9plFmU_Mw5-sa-13" value="Not OK" style="edgeStyle=orthogonalEdgeStyle;rounded=0;html=1;jettySize=auto;orthogonalLoop=1;fontSize=11;endArrow=block;endFill=0;endSize=8;strokeWidth=1;shadow=0;labelBackgroundColor=none;entryX=0.5;entryY=0;entryDx=0;entryDy=0;" parent="WIyWlLk6GJQsqaUBKTNV-1" source="IrsNi3u9plFmU_Mw5-sa-1" target="IrsNi3u9plFmU_Mw5-sa-15" edge="1">
          <mxGeometry x="0.2512" y="-27" relative="1" as="geometry">
            <mxPoint as="offset" />
            <mxPoint x="370" y="1540" as="sourcePoint" />
            <mxPoint x="400" y="1580" as="targetPoint" />
          </mxGeometry>
        </mxCell>
        <mxCell id="IrsNi3u9plFmU_Mw5-sa-14" value="Консервация до ремонта или списания" style="rounded=1;whiteSpace=wrap;html=1;fontSize=12;glass=0;strokeWidth=1;shadow=0;" parent="WIyWlLk6GJQsqaUBKTNV-1" vertex="1">
          <mxGeometry x="410" y="1725" width="175" height="60" as="geometry" />
        </mxCell>
        <mxCell id="IrsNi3u9plFmU_Mw5-sa-15" value="Подлежит ремонту" style="rhombus;whiteSpace=wrap;html=1;shadow=0;fontFamily=Helvetica;fontSize=12;align=center;strokeWidth=1;spacing=6;spacingTop=-4;" parent="WIyWlLk6GJQsqaUBKTNV-1" vertex="1">
          <mxGeometry x="302" y="1550" width="150" height="120" as="geometry" />
        </mxCell>
        <mxCell id="IrsNi3u9plFmU_Mw5-sa-17" value="No" style="edgeStyle=orthogonalEdgeStyle;rounded=0;html=1;jettySize=auto;orthogonalLoop=1;fontSize=11;endArrow=block;endFill=0;endSize=8;strokeWidth=1;shadow=0;labelBackgroundColor=none;exitX=1;exitY=0.5;exitDx=0;exitDy=0;entryX=0.5;entryY=0;entryDx=0;entryDy=0;" parent="WIyWlLk6GJQsqaUBKTNV-1" source="IrsNi3u9plFmU_Mw5-sa-15" target="IrsNi3u9plFmU_Mw5-sa-14" edge="1">
          <mxGeometry x="0.6386" y="20" relative="1" as="geometry">
            <mxPoint as="offset" />
            <mxPoint x="320" y="1710" as="sourcePoint" />
            <mxPoint x="392" y="1750" as="targetPoint" />
          </mxGeometry>
        </mxCell>
        <mxCell id="IrsNi3u9plFmU_Mw5-sa-18" value="Yes" style="edgeStyle=orthogonalEdgeStyle;rounded=0;html=1;jettySize=auto;orthogonalLoop=1;fontSize=11;endArrow=block;endFill=0;endSize=8;strokeWidth=1;shadow=0;labelBackgroundColor=none;" parent="WIyWlLk6GJQsqaUBKTNV-1" source="IrsNi3u9plFmU_Mw5-sa-15" target="IrsNi3u9plFmU_Mw5-sa-19" edge="1">
          <mxGeometry x="-0.1111" y="21" relative="1" as="geometry">
            <mxPoint as="offset" />
            <mxPoint x="212" y="1770" as="sourcePoint" />
            <mxPoint x="222" y="1790" as="targetPoint" />
          </mxGeometry>
        </mxCell>
        <mxCell id="IrsNi3u9plFmU_Mw5-sa-19" value="Ремонт планируется в ближайшие 30 дней" style="rhombus;whiteSpace=wrap;html=1;shadow=0;fontFamily=Helvetica;fontSize=12;align=center;strokeWidth=1;spacing=6;spacingTop=-4;" parent="WIyWlLk6GJQsqaUBKTNV-1" vertex="1">
          <mxGeometry x="80" y="1685" width="182" height="140" as="geometry" />
        </mxCell>
        <mxCell id="IrsNi3u9plFmU_Mw5-sa-24" value="Yes" style="edgeStyle=orthogonalEdgeStyle;rounded=0;html=1;jettySize=auto;orthogonalLoop=1;fontSize=11;endArrow=block;endFill=0;endSize=8;strokeWidth=1;shadow=0;labelBackgroundColor=none;exitX=0;exitY=0.5;exitDx=0;exitDy=0;entryX=0;entryY=0.5;entryDx=0;entryDy=0;" parent="WIyWlLk6GJQsqaUBKTNV-1" source="IrsNi3u9plFmU_Mw5-sa-19" target="IrsNi3u9plFmU_Mw5-sa-26" edge="1">
          <mxGeometry x="0.2053" y="20" relative="1" as="geometry">
            <mxPoint as="offset" />
            <mxPoint x="232" y="1930" as="sourcePoint" />
            <mxPoint x="132" y="1990" as="targetPoint" />
          </mxGeometry>
        </mxCell>
        <mxCell id="IrsNi3u9plFmU_Mw5-sa-25" value="No" style="edgeStyle=orthogonalEdgeStyle;rounded=0;html=1;jettySize=auto;orthogonalLoop=1;fontSize=11;endArrow=block;endFill=0;endSize=8;strokeWidth=1;shadow=0;labelBackgroundColor=none;exitX=1;exitY=0.5;exitDx=0;exitDy=0;entryX=0;entryY=0.5;entryDx=0;entryDy=0;" parent="WIyWlLk6GJQsqaUBKTNV-1" source="IrsNi3u9plFmU_Mw5-sa-19" target="IrsNi3u9plFmU_Mw5-sa-14" edge="1">
          <mxGeometry x="0.2053" y="20" relative="1" as="geometry">
            <mxPoint as="offset" />
            <mxPoint x="391" y="1940" as="sourcePoint" />
            <mxPoint x="292" y="1990" as="targetPoint" />
          </mxGeometry>
        </mxCell>
        <mxCell id="IrsNi3u9plFmU_Mw5-sa-26" value="Изоляция" style="rounded=1;whiteSpace=wrap;html=1;fontSize=12;glass=0;strokeWidth=1;shadow=0;" parent="WIyWlLk6GJQsqaUBKTNV-1" vertex="1">
          <mxGeometry x="430" y="1900" width="175" height="60" as="geometry" />
        </mxCell>
        <mxCell id="NWPuZe0-u7FdvO_SDzyc-0" value="Есть необходимость отправки СИ" style="rhombus;whiteSpace=wrap;html=1;shadow=0;fontFamily=Helvetica;fontSize=12;align=center;strokeWidth=1;spacing=6;spacingTop=-4;" parent="WIyWlLk6GJQsqaUBKTNV-1" vertex="1">
          <mxGeometry x="365" y="370" width="150" height="120" as="geometry" />
        </mxCell>
        <mxCell id="NWPuZe0-u7FdvO_SDzyc-2" value="No" style="edgeStyle=orthogonalEdgeStyle;rounded=0;html=1;jettySize=auto;orthogonalLoop=1;fontSize=11;endArrow=block;endFill=0;endSize=8;strokeWidth=1;shadow=0;labelBackgroundColor=none;exitX=0;exitY=0.5;exitDx=0;exitDy=0;entryX=0.75;entryY=0;entryDx=0;entryDy=0;" parent="WIyWlLk6GJQsqaUBKTNV-1" source="NWPuZe0-u7FdvO_SDzyc-0" target="WIyWlLk6GJQsqaUBKTNV-11" edge="1">
          <mxGeometry x="0.0628" y="-20" relative="1" as="geometry">
            <mxPoint as="offset" />
            <mxPoint x="313" y="410" as="sourcePoint" />
            <mxPoint x="398" y="410" as="targetPoint" />
          </mxGeometry>
        </mxCell>
        <mxCell id="NWPuZe0-u7FdvO_SDzyc-3" value="Yes" style="rounded=0;html=1;jettySize=auto;orthogonalLoop=1;fontSize=11;endArrow=block;endFill=0;endSize=8;strokeWidth=1;shadow=0;labelBackgroundColor=none;edgeStyle=orthogonalEdgeStyle;entryX=0.5;entryY=0;entryDx=0;entryDy=0;" parent="WIyWlLk6GJQsqaUBKTNV-1" source="NWPuZe0-u7FdvO_SDzyc-0" target="NWPuZe0-u7FdvO_SDzyc-5" edge="1">
          <mxGeometry y="20" relative="1" as="geometry">
            <mxPoint as="offset" />
            <mxPoint x="735.5" y="585" as="targetPoint" />
            <mxPoint x="758.5" y="535" as="sourcePoint" />
          </mxGeometry>
        </mxCell>
        <mxCell id="NWPuZe0-u7FdvO_SDzyc-5" value="Создать verification_shipment" style="rounded=1;whiteSpace=wrap;html=1;fontSize=12;glass=0;strokeWidth=1;shadow=0;" parent="WIyWlLk6GJQsqaUBKTNV-1" vertex="1">
          <mxGeometry x="555" y="490" width="150" height="50" as="geometry" />
        </mxCell>
        <mxCell id="NWPuZe0-u7FdvO_SDzyc-7" value="" style="rounded=0;html=1;jettySize=auto;orthogonalLoop=1;fontSize=11;endArrow=block;endFill=0;endSize=8;strokeWidth=1;shadow=0;labelBackgroundColor=none;edgeStyle=orthogonalEdgeStyle;" parent="WIyWlLk6GJQsqaUBKTNV-1" source="NWPuZe0-u7FdvO_SDzyc-5" target="Ezww3RQB-s3_Kbb7Q-9G-2" edge="1">
          <mxGeometry relative="1" as="geometry">
            <mxPoint x="203.5" y="635" as="sourcePoint" />
            <mxPoint x="418.5" y="590" as="targetPoint" />
          </mxGeometry>
        </mxCell>
        <mxCell id="NWPuZe0-u7FdvO_SDzyc-8" value="&lt;div&gt;Внутри VerificationOrder&lt;/div&gt;&lt;div&gt;создать VerificationRequest&lt;/div&gt;&lt;div&gt;для каждого measurement_tool&lt;/div&gt;" style="rounded=1;whiteSpace=wrap;html=1;fontSize=12;glass=0;strokeWidth=1;shadow=0;" parent="WIyWlLk6GJQsqaUBKTNV-1" vertex="1">
          <mxGeometry x="340" y="250" width="200" height="60" as="geometry" />
        </mxCell>
        <mxCell id="NWPuZe0-u7FdvO_SDzyc-9" value="" style="rounded=0;html=1;jettySize=auto;orthogonalLoop=1;fontSize=11;endArrow=block;endFill=0;endSize=8;strokeWidth=1;shadow=0;labelBackgroundColor=none;edgeStyle=orthogonalEdgeStyle;" parent="WIyWlLk6GJQsqaUBKTNV-1" source="WIyWlLk6GJQsqaUBKTNV-7" target="NWPuZe0-u7FdvO_SDzyc-8" edge="1">
          <mxGeometry relative="1" as="geometry">
            <mxPoint x="564" y="220" as="sourcePoint" />
            <mxPoint x="457.4999999999998" y="220" as="targetPoint" />
          </mxGeometry>
        </mxCell>
        <mxCell id="NWPuZe0-u7FdvO_SDzyc-11" value="" style="rounded=0;html=1;jettySize=auto;orthogonalLoop=1;fontSize=11;endArrow=block;endFill=0;endSize=8;strokeWidth=1;shadow=0;labelBackgroundColor=none;edgeStyle=orthogonalEdgeStyle;" parent="WIyWlLk6GJQsqaUBKTNV-1" source="NWPuZe0-u7FdvO_SDzyc-8" target="NWPuZe0-u7FdvO_SDzyc-0" edge="1">
          <mxGeometry relative="1" as="geometry">
            <mxPoint x="510" y="170" as="sourcePoint" />
            <mxPoint x="590.0000000000002" y="170" as="targetPoint" />
          </mxGeometry>
        </mxCell>
        <mxCell id="Ezww3RQB-s3_Kbb7Q-9G-0" value="Статус: Draft" style="rounded=0;whiteSpace=wrap;html=1;fillColor=#d5e8d4;strokeColor=#82b366;fontSize=11;" parent="WIyWlLk6GJQsqaUBKTNV-1" vertex="1">
          <mxGeometry x="32" y="510" width="83" height="30" as="geometry" />
        </mxCell>
        <mxCell id="Ezww3RQB-s3_Kbb7Q-9G-2" value="Создать Verification (статус &quot;Draft&quot;)" style="rounded=1;whiteSpace=wrap;html=1;fontSize=12;glass=0;strokeWidth=1;shadow=0;" parent="WIyWlLk6GJQsqaUBKTNV-1" vertex="1">
          <mxGeometry x="550" y="590" width="160" height="70" as="geometry" />
        </mxCell>
        <mxCell id="Ezww3RQB-s3_Kbb7Q-9G-3" value="" style="endArrow=none;dashed=1;html=1;dashPattern=1 3;strokeWidth=2;rounded=0;fontSize=11;" parent="WIyWlLk6GJQsqaUBKTNV-1" edge="1">
          <mxGeometry width="50" height="50" relative="1" as="geometry">
            <mxPoint x="439" y="1120" as="sourcePoint" />
            <mxPoint x="439.44" y="510" as="targetPoint" />
          </mxGeometry>
        </mxCell>
        <mxCell id="Ezww3RQB-s3_Kbb7Q-9G-4" value="Статус: На поверке" style="rounded=0;whiteSpace=wrap;html=1;fillColor=#d5e8d4;strokeColor=#82b366;fontSize=11;" parent="WIyWlLk6GJQsqaUBKTNV-1" vertex="1">
          <mxGeometry x="32" y="550" width="83" height="30" as="geometry" />
        </mxCell>
        <mxCell id="Ezww3RQB-s3_Kbb7Q-9G-6" value="Статус: Ожидает отправки" style="rounded=0;whiteSpace=wrap;html=1;fillColor=#d5e8d4;strokeColor=#82b366;fontSize=11;" parent="WIyWlLk6GJQsqaUBKTNV-1" vertex="1">
          <mxGeometry x="732" y="745.12" width="110" height="39.76" as="geometry" />
        </mxCell>
        <mxCell id="Ezww3RQB-s3_Kbb7Q-9G-7" value="Подготовить СИ, документы" style="rounded=1;whiteSpace=wrap;html=1;fontSize=12;glass=0;strokeWidth=1;shadow=0;" parent="WIyWlLk6GJQsqaUBKTNV-1" vertex="1">
          <mxGeometry x="550" y="714.88" width="160" height="70" as="geometry" />
        </mxCell>
        <mxCell id="Ezww3RQB-s3_Kbb7Q-9G-9" value="" style="rounded=0;html=1;jettySize=auto;orthogonalLoop=1;fontSize=11;endArrow=block;endFill=0;endSize=8;strokeWidth=1;shadow=0;labelBackgroundColor=none;edgeStyle=orthogonalEdgeStyle;" parent="WIyWlLk6GJQsqaUBKTNV-1" source="Ezww3RQB-s3_Kbb7Q-9G-2" target="Ezww3RQB-s3_Kbb7Q-9G-7" edge="1">
          <mxGeometry relative="1" as="geometry">
            <mxPoint x="225" y="635" as="sourcePoint" />
            <mxPoint x="225" y="1055" as="targetPoint" />
          </mxGeometry>
        </mxCell>
        <mxCell id="Ezww3RQB-s3_Kbb7Q-9G-10" value="Статус:На поверке" style="rounded=0;whiteSpace=wrap;html=1;fillColor=#d5e8d4;strokeColor=#82b366;fontSize=11;" parent="WIyWlLk6GJQsqaUBKTNV-1" vertex="1">
          <mxGeometry x="732" y="875.12" width="110" height="39.76" as="geometry" />
        </mxCell>
        <mxCell id="Ezww3RQB-s3_Kbb7Q-9G-12" value="Статус: Draft" style="rounded=0;whiteSpace=wrap;html=1;fillColor=#d5e8d4;strokeColor=#82b366;fontSize=11;" parent="WIyWlLk6GJQsqaUBKTNV-1" vertex="1">
          <mxGeometry x="732" y="620" width="83" height="30" as="geometry" />
        </mxCell>
        <mxCell id="Ezww3RQB-s3_Kbb7Q-9G-13" value="Отправить СИ, заполнить shipment_data" style="rounded=1;whiteSpace=wrap;html=1;fontSize=12;glass=0;strokeWidth=1;shadow=0;" parent="WIyWlLk6GJQsqaUBKTNV-1" vertex="1">
          <mxGeometry x="550" y="830" width="160" height="70" as="geometry" />
        </mxCell>
        <mxCell id="Ezww3RQB-s3_Kbb7Q-9G-14" value="" style="rounded=0;html=1;jettySize=auto;orthogonalLoop=1;fontSize=11;endArrow=block;endFill=0;endSize=8;strokeWidth=1;shadow=0;labelBackgroundColor=none;edgeStyle=orthogonalEdgeStyle;" parent="WIyWlLk6GJQsqaUBKTNV-1" source="Ezww3RQB-s3_Kbb7Q-9G-7" target="Ezww3RQB-s3_Kbb7Q-9G-13" edge="1">
          <mxGeometry relative="1" as="geometry">
            <mxPoint x="429.9999999999998" y="635" as="sourcePoint" />
            <mxPoint x="429.9999999999998" y="705" as="targetPoint" />
          </mxGeometry>
        </mxCell>
        <mxCell id="Ezww3RQB-s3_Kbb7Q-9G-18" value="" style="rounded=0;html=1;jettySize=auto;orthogonalLoop=1;fontSize=11;endArrow=block;endFill=0;endSize=8;strokeWidth=1;shadow=0;labelBackgroundColor=none;edgeStyle=orthogonalEdgeStyle;" parent="WIyWlLk6GJQsqaUBKTNV-1" source="Ezww3RQB-s3_Kbb7Q-9G-13" edge="1">
          <mxGeometry relative="1" as="geometry">
            <mxPoint x="225" y="560" as="sourcePoint" />
            <mxPoint x="630" y="960.0000000000002" as="targetPoint" />
          </mxGeometry>
        </mxCell>
        <mxCell id="Ezww3RQB-s3_Kbb7Q-9G-19" value="Организовать доставку и приёмку СИ после валидации" style="rounded=1;whiteSpace=wrap;html=1;fontSize=12;glass=0;strokeWidth=1;shadow=0;" parent="WIyWlLk6GJQsqaUBKTNV-1" vertex="1">
          <mxGeometry x="550" y="960" width="160" height="70" as="geometry" />
        </mxCell>
        <mxCell id="Ezww3RQB-s3_Kbb7Q-9G-20" value="СИ доставлены, без повреждений и работоспособны, документы в порядке" style="rhombus;whiteSpace=wrap;html=1;shadow=0;fontFamily=Helvetica;fontSize=12;align=center;strokeWidth=1;spacing=6;spacingTop=-4;" parent="WIyWlLk6GJQsqaUBKTNV-1" vertex="1">
          <mxGeometry x="555" y="1080" width="150" height="120" as="geometry" />
        </mxCell>
        <mxCell id="Ezww3RQB-s3_Kbb7Q-9G-22" value="Да" style="rounded=0;html=1;jettySize=auto;orthogonalLoop=1;fontSize=11;endArrow=block;endFill=0;endSize=8;strokeWidth=1;shadow=0;labelBackgroundColor=none;edgeStyle=orthogonalEdgeStyle;entryX=0.64;entryY=0.156;entryDx=0;entryDy=0;entryPerimeter=0;" parent="WIyWlLk6GJQsqaUBKTNV-1" source="Ezww3RQB-s3_Kbb7Q-9G-20" target="IrsNi3u9plFmU_Mw5-sa-1" edge="1">
          <mxGeometry y="20" relative="1" as="geometry">
            <mxPoint as="offset" />
            <mxPoint x="630" y="1355.0000000000002" as="sourcePoint" />
            <mxPoint x="480" y="1200" as="targetPoint" />
          </mxGeometry>
        </mxCell>
        <mxCell id="Ezww3RQB-s3_Kbb7Q-9G-23" value="" style="rounded=0;html=1;jettySize=auto;orthogonalLoop=1;fontSize=11;endArrow=block;endFill=0;endSize=8;strokeWidth=1;shadow=0;labelBackgroundColor=none;edgeStyle=orthogonalEdgeStyle;" parent="WIyWlLk6GJQsqaUBKTNV-1" source="Ezww3RQB-s3_Kbb7Q-9G-19" target="Ezww3RQB-s3_Kbb7Q-9G-20" edge="1">
          <mxGeometry relative="1" as="geometry">
            <mxPoint x="305" y="1205" as="sourcePoint" />
            <mxPoint x="639.9999999999998" y="1205" as="targetPoint" />
          </mxGeometry>
        </mxCell>
        <mxCell id="Ezww3RQB-s3_Kbb7Q-9G-24" value="Нет" style="rounded=0;html=1;jettySize=auto;orthogonalLoop=1;fontSize=11;endArrow=block;endFill=0;endSize=8;strokeWidth=1;shadow=0;labelBackgroundColor=none;edgeStyle=orthogonalEdgeStyle;exitX=1;exitY=0.5;exitDx=0;exitDy=0;entryX=0.5;entryY=0;entryDx=0;entryDy=0;" parent="WIyWlLk6GJQsqaUBKTNV-1" source="Ezww3RQB-s3_Kbb7Q-9G-20" target="QsTDQtARPfXB_9OG6geg-2" edge="1">
          <mxGeometry y="20" relative="1" as="geometry">
            <mxPoint as="offset" />
            <mxPoint x="644.9999999999998" y="1355" as="sourcePoint" />
            <mxPoint x="798" y="1210" as="targetPoint" />
          </mxGeometry>
        </mxCell>
        <mxCell id="57FvAC4W3q10Dd6X4-_X-2" value="Статус: Закрыт" style="rounded=0;whiteSpace=wrap;html=1;fillColor=#d5e8d4;strokeColor=#82b366;fontSize=11;" parent="WIyWlLk6GJQsqaUBKTNV-1" vertex="1">
          <mxGeometry x="140" y="1410" width="110" height="39.76" as="geometry" />
        </mxCell>
        <mxCell id="57FvAC4W3q10Dd6X4-_X-3" value="Статус: Разногласия" style="rounded=0;whiteSpace=wrap;html=1;fillColor=#d5e8d4;strokeColor=#82b366;fontSize=11;" parent="WIyWlLk6GJQsqaUBKTNV-1" vertex="1">
          <mxGeometry x="910" y="1360.12" width="110" height="39.76" as="geometry" />
        </mxCell>
        <mxCell id="57FvAC4W3q10Dd6X4-_X-4" value="Претензионная работа. Сменить статус &quot;Разногласия&quot;" style="rounded=1;whiteSpace=wrap;html=1;fontSize=12;glass=0;strokeWidth=1;shadow=0;" parent="WIyWlLk6GJQsqaUBKTNV-1" vertex="1">
          <mxGeometry x="710" y="1350" width="175" height="60" as="geometry" />
        </mxCell>
        <mxCell id="57FvAC4W3q10Dd6X4-_X-10" value="Статус СИ: На консервации" style="rounded=0;whiteSpace=wrap;html=1;fillColor=#f8cecc;strokeColor=#b85450;fontSize=11;" parent="WIyWlLk6GJQsqaUBKTNV-1" vertex="1">
          <mxGeometry x="410" y="1800" width="110" height="39.76" as="geometry" />
        </mxCell>
        <mxCell id="57FvAC4W3q10Dd6X4-_X-11" value="Статус СИ: На изоляции" style="rounded=0;whiteSpace=wrap;html=1;fillColor=#f8cecc;strokeColor=#b85450;fontSize=11;" parent="WIyWlLk6GJQsqaUBKTNV-1" vertex="1">
          <mxGeometry x="430" y="1970" width="110" height="39.76" as="geometry" />
        </mxCell>
        <mxCell id="QsTDQtARPfXB_9OG6geg-2" value="Изоляция" style="rounded=1;whiteSpace=wrap;html=1;fontSize=12;glass=0;strokeWidth=1;shadow=0;" parent="WIyWlLk6GJQsqaUBKTNV-1" vertex="1">
          <mxGeometry x="710" y="1220.12" width="175" height="60" as="geometry" />
        </mxCell>
        <mxCell id="QsTDQtARPfXB_9OG6geg-3" value="Статус СИ: На изоляции" style="rounded=0;whiteSpace=wrap;html=1;fillColor=#f8cecc;strokeColor=#b85450;fontSize=11;" parent="WIyWlLk6GJQsqaUBKTNV-1" vertex="1">
          <mxGeometry x="910" y="1230.2399999999998" width="110" height="39.76" as="geometry" />
        </mxCell>
        <mxCell id="QsTDQtARPfXB_9OG6geg-7" value="" style="rounded=0;html=1;jettySize=auto;orthogonalLoop=1;fontSize=11;endArrow=block;endFill=0;endSize=8;strokeWidth=1;shadow=0;labelBackgroundColor=none;edgeStyle=orthogonalEdgeStyle;exitX=0.5;exitY=1;exitDx=0;exitDy=0;" parent="WIyWlLk6GJQsqaUBKTNV-1" source="57FvAC4W3q10Dd6X4-_X-4" target="QsTDQtARPfXB_9OG6geg-8" edge="1">
          <mxGeometry relative="1" as="geometry">
            <mxPoint x="732" y="1200" as="sourcePoint" />
            <mxPoint x="798" y="1560" as="targetPoint" />
          </mxGeometry>
        </mxCell>
        <mxCell id="QsTDQtARPfXB_9OG6geg-8" value="Проблема урегулирована" style="rhombus;whiteSpace=wrap;html=1;shadow=0;fontFamily=Helvetica;fontSize=12;align=center;strokeWidth=1;spacing=6;spacingTop=-4;" parent="WIyWlLk6GJQsqaUBKTNV-1" vertex="1">
          <mxGeometry x="722.5" y="1445" width="150" height="120" as="geometry" />
        </mxCell>
        <mxCell id="QsTDQtARPfXB_9OG6geg-9" value="" style="rounded=0;html=1;jettySize=auto;orthogonalLoop=1;fontSize=11;endArrow=block;endFill=0;endSize=8;strokeWidth=1;shadow=0;labelBackgroundColor=none;edgeStyle=orthogonalEdgeStyle;exitX=0.5;exitY=1;exitDx=0;exitDy=0;entryX=0.5;entryY=0;entryDx=0;entryDy=0;" parent="WIyWlLk6GJQsqaUBKTNV-1" source="QsTDQtARPfXB_9OG6geg-2" target="57FvAC4W3q10Dd6X4-_X-4" edge="1">
          <mxGeometry relative="1" as="geometry">
            <mxPoint x="860" y="1870" as="sourcePoint" />
            <mxPoint x="860" y="2369.88" as="targetPoint" />
          </mxGeometry>
        </mxCell>
        <mxCell id="QsTDQtARPfXB_9OG6geg-12" value="Yes" style="edgeStyle=orthogonalEdgeStyle;rounded=0;html=1;jettySize=auto;orthogonalLoop=1;fontSize=11;endArrow=block;endFill=0;endSize=8;strokeWidth=1;shadow=0;labelBackgroundColor=none;exitX=0;exitY=0.5;exitDx=0;exitDy=0;entryX=1;entryY=0;entryDx=0;entryDy=0;" parent="WIyWlLk6GJQsqaUBKTNV-1" source="QsTDQtARPfXB_9OG6geg-8" target="IrsNi3u9plFmU_Mw5-sa-1" edge="1">
          <mxGeometry x="-0.1111" y="21" relative="1" as="geometry">
            <mxPoint as="offset" />
            <mxPoint x="736" y="1440" as="sourcePoint" />
            <mxPoint x="300" y="1280" as="targetPoint" />
            <Array as="points">
              <mxPoint x="580" y="1505" />
              <mxPoint x="580" y="1300" />
            </Array>
          </mxGeometry>
        </mxCell>
        <mxCell id="QsTDQtARPfXB_9OG6geg-13" value="No" style="edgeStyle=orthogonalEdgeStyle;rounded=0;html=1;jettySize=auto;orthogonalLoop=1;fontSize=11;endArrow=block;endFill=0;endSize=8;strokeWidth=1;shadow=0;labelBackgroundColor=none;exitX=1;exitY=0.5;exitDx=0;exitDy=0;entryX=0.5;entryY=0;entryDx=0;entryDy=0;" parent="WIyWlLk6GJQsqaUBKTNV-1" source="QsTDQtARPfXB_9OG6geg-8" target="QsTDQtARPfXB_9OG6geg-14" edge="1">
          <mxGeometry x="0.6386" y="20" relative="1" as="geometry">
            <mxPoint as="offset" />
            <mxPoint x="920" y="1530" as="sourcePoint" />
            <mxPoint x="970" y="1590" as="targetPoint" />
          </mxGeometry>
        </mxCell>
        <mxCell id="QsTDQtARPfXB_9OG6geg-14" value="Сменить статус на &quot;Закрыт с разногласиями&quot;" style="rounded=1;whiteSpace=wrap;html=1;fontSize=12;glass=0;strokeWidth=1;shadow=0;" parent="WIyWlLk6GJQsqaUBKTNV-1" vertex="1">
          <mxGeometry x="870" y="1605" width="175" height="60" as="geometry" />
        </mxCell>
        <mxCell id="QsTDQtARPfXB_9OG6geg-15" value="Статус: Закрыт с разногласиями" style="rounded=0;whiteSpace=wrap;html=1;fillColor=#d5e8d4;strokeColor=#82b366;fontSize=11;" parent="WIyWlLk6GJQsqaUBKTNV-1" vertex="1">
          <mxGeometry x="750" y="1615.12" width="110" height="39.76" as="geometry" />
        </mxCell>
        <mxCell id="QsTDQtARPfXB_9OG6geg-17" value="Пригоден к использованию?" style="rhombus;whiteSpace=wrap;html=1;shadow=0;fontFamily=Helvetica;fontSize=12;align=center;strokeWidth=1;spacing=6;spacingTop=-4;" parent="WIyWlLk6GJQsqaUBKTNV-1" vertex="1">
          <mxGeometry x="882.5" y="1730" width="150" height="120" as="geometry" />
        </mxCell>
        <mxCell id="QsTDQtARPfXB_9OG6geg-19" value="No" style="edgeStyle=orthogonalEdgeStyle;rounded=0;html=1;jettySize=auto;orthogonalLoop=1;fontSize=11;endArrow=block;endFill=0;endSize=8;strokeWidth=1;shadow=0;labelBackgroundColor=none;exitX=0;exitY=0.5;exitDx=0;exitDy=0;entryX=1;entryY=0;entryDx=0;entryDy=0;" parent="WIyWlLk6GJQsqaUBKTNV-1" source="QsTDQtARPfXB_9OG6geg-17" target="IrsNi3u9plFmU_Mw5-sa-15" edge="1">
          <mxGeometry x="-0.8013" y="-20" relative="1" as="geometry">
            <mxPoint as="offset" />
            <mxPoint x="677" y="1700" as="sourcePoint" />
            <mxPoint x="762" y="1800" as="targetPoint" />
            <Array as="points">
              <mxPoint x="680" y="1790" />
              <mxPoint x="680" y="1580" />
            </Array>
          </mxGeometry>
        </mxCell>
        <mxCell id="QsTDQtARPfXB_9OG6geg-20" value="" style="rounded=0;html=1;jettySize=auto;orthogonalLoop=1;fontSize=11;endArrow=block;endFill=0;endSize=8;strokeWidth=1;shadow=0;labelBackgroundColor=none;edgeStyle=orthogonalEdgeStyle;exitX=0.5;exitY=1;exitDx=0;exitDy=0;entryX=0.5;entryY=0;entryDx=0;entryDy=0;" parent="WIyWlLk6GJQsqaUBKTNV-1" source="QsTDQtARPfXB_9OG6geg-14" target="QsTDQtARPfXB_9OG6geg-17" edge="1">
          <mxGeometry relative="1" as="geometry">
            <mxPoint x="964.38" y="1710.0000000000002" as="sourcePoint" />
            <mxPoint x="964.38" y="1745.0000000000002" as="targetPoint" />
          </mxGeometry>
        </mxCell>
        <mxCell id="QsTDQtARPfXB_9OG6geg-21" value="Yes" style="edgeStyle=orthogonalEdgeStyle;rounded=0;html=1;jettySize=auto;orthogonalLoop=1;fontSize=11;endArrow=block;endFill=0;endSize=8;strokeWidth=1;shadow=0;labelBackgroundColor=none;exitX=1;exitY=0.5;exitDx=0;exitDy=0;entryX=1;entryY=0.5;entryDx=0;entryDy=0;" parent="WIyWlLk6GJQsqaUBKTNV-1" source="QsTDQtARPfXB_9OG6geg-17" target="WIyWlLk6GJQsqaUBKTNV-3" edge="1">
          <mxGeometry x="-0.9732" y="20" relative="1" as="geometry">
            <mxPoint as="offset" />
            <mxPoint x="1353" y="1680" as="sourcePoint" />
            <mxPoint x="885" y="1470" as="targetPoint" />
            <Array as="points">
              <mxPoint x="1100" y="1790" />
              <mxPoint x="1100" y="30" />
            </Array>
          </mxGeometry>
        </mxCell>
        <mxCell id="TGqTIEEl4YDhrMUFnAIv-0" value="Статус:Ожидает возврата" style="rounded=0;whiteSpace=wrap;html=1;fillColor=#d5e8d4;strokeColor=#82b366;fontSize=11;" vertex="1" parent="WIyWlLk6GJQsqaUBKTNV-1">
          <mxGeometry x="732" y="975.12" width="110" height="39.76" as="geometry" />
        </mxCell>
      </root>
    </mxGraphModel>
  </diagram>
</mxfile>
